<svg
   width="128"
   height="128"
   viewBox="0 0 682.66669 682.66669"
   xmlns="http://www.w3.org/2000/svg">
   <style>
      #path2 {
         fill: #000000;
         stroke: #000000;
      }

      @media (prefers-color-scheme: dark) {
         #path2 {
            fill: #ffffff;
            stroke: #ffffff;
         }
      }
   </style>
   <path
      fill="#ec9c00" stroke="#ec9c00"
      d="m 324.00001,489.97862 c -60.5,-61.13622 -110.45,-111.19168 -111,-111.23436 -0.55,-0.0427 -1,48.52242 -1,107.92242 v 108 h -38 H 136 V 410.41722 226.16776 l 3.66667,3.38397 c 6.48888,5.98859 382.13908,361.25592 387.64707,366.61325 l 5.31373,5.16837 -49.31373,-0.099 -49.31373,-0.099 z m 190.30625,58.976 -30.36042,-29.62127 -0.97291,-133.52916 -0.97292,-133.52915 -70.16006,67.05763 -70.16006,67.05763 -25.17328,-23.73451 c -13.8453,-13.05398 -25.17327,-24.35412 -25.17327,-25.11142 0,-0.7573 57,-53.5292 126.66667,-117.27091 l 126.66667,-115.894 0.3405,118.47694 c 0.18728,65.16232 0.18728,171.85652 0,237.09822 l -0.3405,118.62127 z"
      id="path1" />
   <path
      d="m 249.61136,299.34745 c -11.94709,-11.30991 -21.74414,-20.94078 -21.77123,-21.40192 -0.0271,-0.46115 45.01379,-42.48754 100.09084,-93.39199 l 100.14008,-92.553537 46.96448,0.0066 46.96449,0.0066 -3.58542,2.993378 C 516.44261,96.652983 460.46576,147.8 394.02159,208.66667 327.57742,269.53334 272.79086,319.4633 272.27368,319.62213 c -0.51719,0.15884 -10.71523,-8.96477 -22.66232,-20.27468 z M 171.66667,224.52333 136,191.77826 V 136.5558 81.333336 h 36.00001 36 v 88.000004 c 0,48.4 -0.15,87.98539 -0.33334,87.96753 -0.18333,-0.0179 -16.38333,-14.76776 -36,-32.77754 z"
      id="path2" />
</svg>
